<svg xmlns="http://www.w3.org/2000/svg" viewBox="0 0 52 49.74"><defs><style>.cls-1{fill:none;stroke:#231f20;stroke-miterlimit:10;stroke-width:2px;}</style></defs><g id="Layer_2" data-name="Layer 2"><g id="Layer_1-2" data-name="Layer 1"><circle class="cls-1" cx="12.57" cy="23.41" r="3.89"/><circle class="cls-1" cx="24.71" cy="23.41" r="3.89"/><circle class="cls-1" cx="36.45" cy="23.41" r="3.89"/><circle class="cls-1" cx="12.57" cy="35.46" r="3.89"/><circle class="cls-1" cx="24.71" cy="35.46" r="3.89"/><ellipse class="cls-1" cx="14.76" cy="6.04" rx="3.17" ry="5.04"/><ellipse class="cls-1" cx="35.3" cy="6.04" rx="3.17" ry="5.04"/><path class="cls-1" d="M27.36,45.57H12l-5.55-.08C.87,45.41,1,40.74,1,40.74S1,23.78,1,15.19c0-1.84,0-3.3,0-4.11.09-4.61,4.76-5,4.76-5h5.8"/><path class="cls-1" d="M47.91,24.24V9.17s-.08-3.09-4-3.14H38.47"/><path class="cls-1" d="M32.13,6H17.92"/><polyline class="cls-1" points="47.91 15.2 47.91 15.2 1.01 15.2"/><circle class="cls-1" cx="42.08" cy="39.82" r="8.92"/><polyline class="cls-1" points="42.08 35.46 42.08 39.35 46.24 39.35"/></g></g></svg>