<svg xmlns="http://www.w3.org/2000/svg" viewBox="0 0 63.56 80.45"><g id="Layer_2" data-name="Layer 2"><g id="Layer_1-2" data-name="Layer 1"><path d="M49.23,11.05a1.87,1.87,0,0,1-1.32-.58,2,2,0,0,1-.55-1.39,2.08,2.08,0,0,1,.55-1.42,1.87,1.87,0,0,1,2.64,0,2.12,2.12,0,0,1,.55,1.42,2,2,0,0,1-.55,1.39,1.89,1.89,0,0,1-1.32.58"/><path d="M8.1,4A4.5,4.5,0,0,0,3.74,8.57V71.88A4.5,4.5,0,0,0,8.1,76.5H55.46a4.5,4.5,0,0,0,4.36-4.62V8.57A4.5,4.5,0,0,0,55.46,4ZM55.46,80.45H8.1A8.35,8.35,0,0,1,0,71.88V8.57A8.36,8.36,0,0,1,8.1,0H55.46a8.36,8.36,0,0,1,8.1,8.57V71.88a8.35,8.35,0,0,1-8.1,8.57"/><path d="M61.69,17.15H1.87a2,2,0,0,1,0-4H61.69a2,2,0,0,1,0,4"/><path d="M55.46,11a1.86,1.86,0,0,1-1.32-.57,2.05,2.05,0,0,1-.55-1.4,2.08,2.08,0,0,1,.55-1.41,1.88,1.88,0,0,1,2.64,0,2.08,2.08,0,0,1,.55,1.41,2.05,2.05,0,0,1-.55,1.4,1.86,1.86,0,0,1-1.32.57"/><path d="M43,11a1.8,1.8,0,0,1-1.32-.57,2.05,2.05,0,0,1-.55-1.4,2.08,2.08,0,0,1,.55-1.41,1.88,1.88,0,0,1,2.64,0,2.08,2.08,0,0,1,.55,1.41,2.05,2.05,0,0,1-.55,1.4A1.83,1.83,0,0,1,43,11"/><path d="M20.91,29.13a1.41,1.41,0,1,0,1.33,1.41,1.37,1.37,0,0,0-1.33-1.41m0,6.78a5.37,5.37,0,0,1,0-10.73,5.37,5.37,0,0,1,0,10.73"/><path d="M28.15,49a1.92,1.92,0,0,1-1.87-2,5.54,5.54,0,0,0-5.37-5.69,5.54,5.54,0,0,0-5.37,5.69,1.87,1.87,0,1,1-3.74,0,9.4,9.4,0,0,1,9.11-9.64A9.4,9.4,0,0,1,30,47.05a1.92,1.92,0,0,1-1.87,2"/><path d="M10,45.07H31.43v-21H10ZM33.3,49H8.1a1.92,1.92,0,0,1-1.87-2v-25a1.93,1.93,0,0,1,1.87-2H33.3a1.93,1.93,0,0,1,1.87,2v25a1.92,1.92,0,0,1-1.87,2"/><path d="M45.8,58H20.56a2,2,0,0,1,0-4H45.8a2,2,0,0,1,0,4"/><path d="M14.75,58H8.1a2,2,0,0,1,0-4h6.65a2,2,0,0,1,0,4"/><path d="M55.77,66H20.56a2,2,0,0,1,0-4H55.77a2,2,0,0,1,0,4"/><path d="M14.75,66H8.1a2,2,0,0,1,0-4h6.65a2,2,0,0,1,0,4"/><path d="M55.46,24.07H39.73a2,2,0,0,1,0-4H55.46a2,2,0,0,1,0,4"/><path d="M55.46,32H39.73a2,2,0,0,1,0-3.95H55.46a2,2,0,0,1,0,3.95"/><path d="M55.46,39.9H39.73a2,2,0,0,1,0-4H55.46a2,2,0,0,1,0,4"/><path d="M37.39,11.05H8.1a1.93,1.93,0,0,1-1.87-2,1.93,1.93,0,0,1,1.87-2H37.39a1.93,1.93,0,0,1,1.87,2,1.93,1.93,0,0,1-1.87,2"/></g></g></svg>