<svg xmlns="http://www.w3.org/2000/svg" viewBox="0 0 87.35 113.12"><defs><style>.cls-1{fill:none;}.cls-1,.cls-2,.cls-3{stroke:#231f20;stroke-miterlimit:10;}.cls-1,.cls-2{stroke-width:3px;}.cls-2,.cls-3,.cls-4{fill:#231f20;}.cls-3{stroke-width:5px;}</style></defs><g id="Layer_2" data-name="Layer 2"><g id="Layer_1-2" data-name="Layer 1"><rect class="cls-1" x="1.5" y="1.5" width="84.35" height="110.12" rx="12"/><line class="cls-1" x1="1.5" y1="19.74" x2="85.85" y2="19.74"/><rect class="cls-1" x="10.44" y="30.79" width="35.29" height="37.18" rx="1.88"/><circle class="cls-1" cx="28.09" cy="42.91" r="6.24"/><path class="cls-1" d="M17.5,68V64.32a10.24,10.24,0,0,1,20.48,0V68"/><line class="cls-1" x1="8.21" y1="11.21" x2="51.79" y2="11.21"/><circle class="cls-2" cx="58.85" cy="11.82" r="0.9"/><circle class="cls-2" cx="67.28" cy="11.82" r="0.9"/><circle class="cls-2" cx="75.79" cy="11.82" r="0.9"/><line class="cls-2" x1="53.15" y1="30.79" x2="77.5" y2="30.79"/><line class="cls-2" x1="53.15" y1="41.5" x2="77.5" y2="41.5"/><line class="cls-3" x1="53.15" y1="53.03" x2="77.5" y2="53.03"/><rect class="cls-4" x="7.97" y="75.85" width="11.65" height="5.41"/><rect class="cls-4" x="7.97" y="87.5" width="11.65" height="5.41"/><rect class="cls-4" x="24.56" y="75.85" width="40.76" height="5.41"/><rect class="cls-4" x="24.56" y="87.5" width="52.94" height="5.41"/></g></g></svg>