<svg xmlns="http://www.w3.org/2000/svg" viewBox="0 0 83.62 80.45"><g id="Layer_2" data-name="Layer 2"><g id="Layer_1-2" data-name="Layer 1"><path d="M58.06,17.88H4.64V4.47H58.06ZM60.38,0H2.32A2.25,2.25,0,0,0,0,2.24V20.11a2.25,2.25,0,0,0,2.32,2.24H60.38a2.25,2.25,0,0,0,2.32-2.24V2.24A2.25,2.25,0,0,0,60.38,0"/><path d="M70.32,8.13a3.81,3.81,0,1,1,3.81,3.67,3.7,3.7,0,0,1-3.81-3.67M83.32,19l-3.06-5.18a7.94,7.94,0,0,0,2.41-5.64,8.46,8.46,0,0,0-16.9,0,8.33,8.33,0,0,0,8.45,8.14,7.45,7.45,0,0,0,2-.27l3.07,5.19a2.43,2.43,0,0,0,2,1.16,2.29,2.29,0,0,0,1.12-.27A2.39,2.39,0,0,0,83.32,19"/><path d="M4.64,31.29a4.47,4.47,0,1,0,0,8.94,4.47,4.47,0,1,0,0-8.94"/><path d="M4.64,44.7a4.47,4.47,0,1,0,0,8.94,4.47,4.47,0,1,0,0-8.94"/><path d="M4.64,58.11a4.47,4.47,0,1,0,0,8.94,4.47,4.47,0,1,0,0-8.94"/><path d="M4.64,71.52a4.47,4.47,0,1,0,0,8.93,4.47,4.47,0,1,0,0-8.93"/><path d="M60.38,33.52H16.26a2.24,2.24,0,1,0,0,4.47H60.38a2.24,2.24,0,1,0,0-4.47"/><path d="M60.38,46.93H16.26a2.24,2.24,0,1,0,0,4.47H60.38a2.24,2.24,0,1,0,0-4.47"/><path d="M60.38,60.34H16.26a2.24,2.24,0,1,0,0,4.47H60.38a2.24,2.24,0,1,0,0-4.47"/><path d="M60.38,73.75H16.26a2.24,2.24,0,1,0,0,4.47H60.38a2.24,2.24,0,1,0,0-4.47"/></g></g></svg>