<svg xmlns="http://www.w3.org/2000/svg" viewBox="0 0 56.84 54.48"><defs><style>.cls-1{fill:none;stroke:#231f20;stroke-miterlimit:10;stroke-width:3px;}</style></defs><g id="Layer_2" data-name="Layer 2"><g id="Layer_1-2" data-name="Layer 1"><path class="cls-1" d="M29.13,23.74A12.25,12.25,0,0,0,33,14.91C33,7.5,26,1.5,17.27,1.5S1.5,7.5,1.5,14.91,8.56,28.32,17.27,28.32a18,18,0,0,0,6.39-1.15"/><path class="cls-1" d="M29.59,22.82s-.59,5.41.74,7.71-8-3.45-8-3.45"/><path class="cls-1" d="M44,23.32s-4.58,11-9.52,15.94a5,5,0,0,1-5.24,0,5.52,5.52,0,0,0-5.12-.47l-4.7,4.59a6.05,6.05,0,0,0-.27,5.28c1.24,2.87,5.12,4.1,5.12,4.1s6.18,1,10.1-1.15,10.11-8.82,11.34-10.54,6.22-8.38,7.54-13.32l1.33-4.94a25.9,25.9,0,0,0,.22-12c-1.41-6.79-6.22-8.34-6.22-8.34a6,6,0,0,0-4.41,0A5.48,5.48,0,0,0,41.4,6s-1.5,4.41-.84,6.31a4.53,4.53,0,0,0,2,2.56,3.64,3.64,0,0,1,2,3.44A20.56,20.56,0,0,1,44,23.32Z"/></g></g></svg>