<svg xmlns="http://www.w3.org/2000/svg" viewBox="0 0 85.04 79.95"><defs><style>.cls-1{fill:none;stroke:#231f20;stroke-miterlimit:10;stroke-width:0.5px;}</style></defs><g id="Layer_2" data-name="Layer 2"><g id="Layer_1-2" data-name="Layer 1"><path d="M70,3.86c3.51,0,6.17,2.4,8.13,6.05a27.22,27.22,0,0,1,3,12c0,10-2.62,18.82-8.28,28.49l-.09.18c-8.91,15.16-20,25.49-33.25,25.49A10.64,10.64,0,0,1,32.63,73a10.07,10.07,0,0,1-3.17-6.29C32,63.81,37.92,57.61,38,57.53s0-.06.12-.06a1.78,1.78,0,0,1,.68.15,20.77,20.77,0,0,1,3.37,1.94l.09,0c2.11,1.21,4,1.85,5.84,1.59a8.26,8.26,0,0,0,4.73-2.79l0,0A75.94,75.94,0,0,0,63.29,44.49c3-5.06,4.31-10,5.73-14.84a10.23,10.23,0,0,0,.47-5.46,7.93,7.93,0,0,0-4.09-4.73h-.05c-.92-.48-2-1-2.82-1.53a4.65,4.65,0,0,1-.74-.61c.17-.7,2.15-8.81,3.29-12.13A10.56,10.56,0,0,1,70,3.86Zm-43.83,0c12.47,0,22.2,7.89,22.2,17.16,0,5.37-3.13,9.67-8.4,12.92a1.78,1.78,0,0,0-.7,2.23l2.61,6.17L32.56,37.5a1.85,1.85,0,0,0-1.2-.21,33.81,33.81,0,0,1-5.2.88C13.68,38.17,4,30.28,4,21S13.68,3.86,26.16,3.86M70,.25A13.82,13.82,0,0,0,62.5,2.37a1.75,1.75,0,0,0-.71.88C60.35,7,58,17,58,17a1.73,1.73,0,0,0-.05.38,3.33,3.33,0,0,0,1,2.24,7.49,7.49,0,0,0,1.52,1.26c1.08.7,2.26,1.28,3.06,1.7l0,0c1.65.95,2.13,1.65,2.32,2.41a7.58,7.58,0,0,1-.44,3.64c-1.42,4.88-2.69,9.46-5.37,14a72.58,72.58,0,0,1-9.93,13.16c-1.18,1.21-1.93,1.68-2.58,1.77s-1.65-.14-3.35-1.09c0,0,0,0,0,0s-.06,0-.09,0a20.87,20.87,0,0,0-4-2.26,5.21,5.21,0,0,0-2.32-.38A4,4,0,0,0,35.42,55l0,0s-6.86,7.07-9.34,10a1.76,1.76,0,0,0-.44,1.11,13.36,13.36,0,0,0,4.46,9.43,14,14,0,0,0,9.4,4.11C54.73,79.7,66.82,68,76,52.24a1.27,1.27,0,0,0,.06-.18.89.89,0,0,0,.08-.17c5.77-10,8.61-19.48,8.61-30A30.18,30.18,0,0,0,81.41,8.21C79.09,3.89,75.23.25,70,.25ZM26.16.25C12.07.25.25,9.34.25,21S12.07,41.78,26.16,41.78A24.11,24.11,0,0,0,31.42,41l13.3,6.93a1.86,1.86,0,0,0,2.49-.78,1.78,1.78,0,0,0,.07-1.51l-4.06-9.57c5.26-3.67,8.85-8.79,8.85-15C52.07,9.34,40.25.25,26.16.25"/><path class="cls-1" d="M70,3.86c3.51,0,6.17,2.4,8.13,6.05a27.22,27.22,0,0,1,3,12c0,10-2.62,18.82-8.28,28.49l-.09.18c-8.91,15.16-20,25.49-33.25,25.49A10.64,10.64,0,0,1,32.63,73a10.07,10.07,0,0,1-3.17-6.29C32,63.81,37.92,57.61,38,57.53s0-.06.12-.06a1.78,1.78,0,0,1,.68.15,20.77,20.77,0,0,1,3.37,1.94l.09,0c2.11,1.21,4,1.85,5.84,1.59a8.26,8.26,0,0,0,4.73-2.79l0,0A75.94,75.94,0,0,0,63.29,44.49c3-5.06,4.31-10,5.73-14.84a10.23,10.23,0,0,0,.47-5.46,7.93,7.93,0,0,0-4.09-4.73h-.05c-.92-.48-2-1-2.82-1.53a4.65,4.65,0,0,1-.74-.61c.17-.7,2.15-8.81,3.29-12.13A10.56,10.56,0,0,1,70,3.86Zm-43.83,0c12.47,0,22.2,7.89,22.2,17.16,0,5.37-3.13,9.67-8.4,12.92a1.78,1.78,0,0,0-.7,2.23l2.61,6.17L32.56,37.5a1.85,1.85,0,0,0-1.2-.21,33.81,33.81,0,0,1-5.2.88C13.68,38.17,4,30.28,4,21S13.68,3.86,26.16,3.86ZM70,.25A13.82,13.82,0,0,0,62.5,2.37a1.75,1.75,0,0,0-.71.88C60.35,7,58,17,58,17a1.73,1.73,0,0,0-.05.38,3.33,3.33,0,0,0,1,2.24,7.49,7.49,0,0,0,1.52,1.26c1.08.7,2.26,1.28,3.06,1.7l0,0c1.65.95,2.13,1.65,2.32,2.41a7.58,7.58,0,0,1-.44,3.64c-1.42,4.88-2.69,9.46-5.37,14a72.58,72.58,0,0,1-9.93,13.16c-1.18,1.21-1.93,1.68-2.58,1.77s-1.65-.14-3.35-1.09c0,0,0,0,0,0s-.06,0-.09,0a20.87,20.87,0,0,0-4-2.26,5.21,5.21,0,0,0-2.32-.38A4,4,0,0,0,35.42,55l0,0s-6.86,7.07-9.34,10a1.76,1.76,0,0,0-.44,1.11,13.36,13.36,0,0,0,4.46,9.43,14,14,0,0,0,9.4,4.11C54.73,79.7,66.82,68,76,52.24a1.27,1.27,0,0,0,.06-.18.89.89,0,0,0,.08-.17c5.77-10,8.61-19.48,8.61-30A30.18,30.18,0,0,0,81.41,8.21C79.09,3.89,75.23.25,70,.25ZM26.16.25C12.07.25.25,9.34.25,21S12.07,41.78,26.16,41.78A24.11,24.11,0,0,0,31.42,41l13.3,6.93a1.86,1.86,0,0,0,2.49-.78,1.78,1.78,0,0,0,.07-1.51l-4.06-9.57c5.26-3.67,8.85-8.79,8.85-15C52.07,9.34,40.25.25,26.16.25Z"/></g></g></svg>