<svg version="1.2" xmlns="http://www.w3.org/2000/svg" viewBox="0 0 193 172" width="193" height="172"><defs><clipPath clipPathUnits="userSpaceOnUse" id="cp1"><path d="m-2006-747h2596v1399h-2596z"/></clipPath></defs><style>.A{stroke:#2c2e35}</style><g clip-path="url(#cp1)"><path fill-rule="evenodd" class="A" d="m167.1 2.6c13.1 0 23.8 10.5 23.8 23.5v85.1c0 13-10.7 23.5-23.8 23.5h-11.8v31.8c0 0.8-0.3 1.7-0.9 2.3c-1.3 1.3-3.5 1.3-4.8 0l-34.5-34.1h-88.4c-13.1 0-23.8-10.5-23.8-23.5v-85.1c0-13 10.7-23.5 23.8-23.5zm-157.5 23.5v85.1c0 9.4 7.5 16.9 17 16.9h89.9c0.8 0 1.7 0.3 2.3 0.9l29.8 29.4v-27c0-1.9 1.5-3.3 3.4-3.3h15.1c9.5 0 17-7.5 17-16.9v-85.1c0-9.4-7.5-16.9-17-16.9h-140.5c-9.5 0-17 7.5-17 16.9zm90.4 8.5l8.4 20.8l22.6 1.5c0.9 0.1 1.7 0.5 2.3 1.2c1.2 1.4 1 3.5-0.4 4.7l-17.4 14.3l5.6 21.7c0.2 0.9 0 1.9-0.5 2.7c-1 1.5-3 2-4.6 1l-19.2-11.9l-19.1 11.9c-0.8 0.5-1.8 0.6-2.7 0.4c-1.8-0.5-2.8-2.3-2.4-4.1l5.6-21.7l-17.4-14.3c-0.7-0.6-1.2-1.5-1.2-2.4c-0.1-1.8 1.3-3.4 3.1-3.5l22.6-1.5l8.4-20.8c0.5-1.2 1.8-2.1 3.2-2.1c1.3 0 2.6 0.9 3.1 2.1zm-9.3 25.2c-0.4 1.2-1.6 2-2.9 2.1l-16.3 1.1l12.6 10.4c1 0.8 1.4 2.1 1.1 3.3l-4 15.8l13.9-8.7c1.1-0.6 2.4-0.6 3.5 0l13.9 8.7l-4-15.8c-0.3-1.2 0.1-2.5 1.1-3.3l12.6-10.4l-16.4-1.1c-1.2-0.1-2.4-0.9-2.8-2.1l-6.2-15z"/></g></svg>